# xmcd CD database file
#
# Track frame offsets:
#	150
#	19317
#	31139
#	42894
#	55164
#	68974
#	81498
#	93151
#	108934
#	117613
#	127959
#	138967
#	149935
#	161181
#	171796
#	181952
#	191722
#	211053
#	219075
#	228311
#	239046
#	249520
#	258570
#	269009
#
# Disc length: 3803 seconds
#
# Revision: 1
# Processed by: cddbd v1.5.2PL0 Copyright (c) Steve Scherf et al.
# Submitted via: CDex 1.75
#
DISCID=6a0ed918
DTITLE=Tony Crombie - Tony Crombie - CD3
DYEAR=2013
DGENRE=Jazz
TTITLE0=Cocktails For Two
TTITLE1=Wrap Your Troubles In Dreams
TTITLE2=So Near So Far
TTITLE3=I've Got The World On A String
TTITLE4=Embraceable You
TTITLE5=Tulip Or Turnip
TTITLE6=So Rare
TTITLE7=For You Alone
TTITLE8=Percussion Staccato
TTITLE9=I Should Care
TTITLE10=Summertime
TTITLE11=You Are My Lucky Star
TTITLE12=Golden Striker
TTITLE13=Johnny Drum
TTITLE14=Drum Boogie Shuffle
TTITLE15=Skin Deep
TTITLE16=Off Beat
TTITLE17=Drums Andy
TTITLE18=Drums! Drums! Drums!
TTITLE19=Scotland The Brave
TTITLE20=Drum Blues
TTITLE21=The Anvil Chorus
TTITLE22=Dick's Bandstand
TTITLE23=Amen
EXTD=YEAR: 2013
EXTT0=
EXTT1=
EXTT2=
EXTT3=
EXTT4=
EXTT5=
EXTT6=
EXTT7=
EXTT8=
EXTT9=
EXTT10=
EXTT11=
EXTT12=
EXTT13=
EXTT14=
EXTT15=
EXTT16=
EXTT17=
EXTT18=
EXTT19=
EXTT20=
EXTT21=
EXTT22=
EXTT23=
PLAYORDER=
